<?xml version="1.0" encoding="UTF-8"?>
<svg width="600" height="380" xmlns="http://www.w3.org/2000/svg">
  <defs>
    <linearGradient id="bg2" x1="0%" y1="0%" x2="100%" y2="100%">
      <stop offset="0%" style="stop-color:#F7F5F2;stop-opacity:1" />
      <stop offset="100%" style="stop-color:#EDE9E3;stop-opacity:1" />
    </linearGradient>
  </defs>
  
  <!-- Background -->
  <rect width="600" height="380" fill="url(#bg2)"/>
  
  <!-- Journal/Notebook -->
  <rect x="150" y="100" width="300" height="200" fill="#FEFEFE" stroke="#D6D3D1" stroke-width="2" rx="4"/>
  <rect x="150" y="100" width="300" height="30" fill="#E7E5E4" stroke="#D6D3D1" stroke-width="2" rx="4"/>
  
  <!-- Notebook lines -->
  <line x1="180" y1="160" x2="420" y2="160" stroke="#E7E5E4" stroke-width="1"/>
  <line x1="180" y1="180" x2="420" y2="180" stroke="#E7E5E4" stroke-width="1"/>
  <line x1="180" y1="200" x2="420" y2="200" stroke="#E7E5E4" stroke-width="1"/>
  <line x1="180" y1="220" x2="380" y2="220" stroke="#E7E5E4" stroke-width="1"/>
  <line x1="180" y1="240" x2="420" y2="240" stroke="#E7E5E4" stroke-width="1"/>
  <line x1="180" y1="260" x2="350" y2="260" stroke="#E7E5E4" stroke-width="1"/>
  
  <!-- Decorative leaf -->
  <ellipse cx="420" cy="240" rx="30" ry="50" fill="#A5D4B8" opacity="0.8" transform="rotate(30 420 240)"/>
  <ellipse cx="400" cy="260" rx="25" ry="42" fill="#9EC5AB" opacity="0.7" transform="rotate(-20 400 260)"/>
  
  <!-- Pen -->
  <rect x="340" y="180" width="8" height="100" fill="#7FA68D" rx="4" transform="rotate(25 344 230)"/>
  <circle cx="366" cy="267" r="4" fill="#5A7C6A"/>
</svg>
